<svg width="420" height="220" viewBox="0 0 420 220" fill="none" xmlns="http://www.w3.org/2000/svg">
<rect width="420" height="220" rx="8" fill="#1E1E2E"/>
<path d="M48.2375 37C47.2935 37 46.5975 36.736 46.1495 36.208C45.7175 35.68 45.5015 35 45.5015 34.168V26.248H41.3735V24.616H44.4455C44.8615 24.616 45.1495 24.536 45.3095 24.376C45.4855 24.2 45.5735 23.904 45.5735 23.488V20.248H47.4215V24.616H53.0615V26.248H47.4215V35.368H53.0615V37H48.2375ZM62.7961 21.88C62.2361 21.88 61.8441 21.768 61.6201 21.544C61.3961 21.304 61.2841 21.008 61.2841 20.656V20.272C61.2841 19.92 61.3961 19.632 61.6201 19.408C61.8441 19.168 62.2361 19.048 62.7961 19.048C63.3561 19.048 63.7481 19.168 63.9721 19.408C64.1961 19.632 64.3081 19.92 64.3081 20.272V20.656C64.3081 21.008 64.1961 21.304 63.9721 21.544C63.7481 21.768 63.3561 21.88 62.7961 21.88ZM57.3721 35.368H61.8361V26.248H57.3721V24.616H63.7561V35.368H67.9321V37H57.3721V35.368ZM70.5148 37V24.616H72.2908V26.056H72.3867C72.5788 25.576 72.8508 25.168 73.2028 24.832C73.5548 24.496 74.0748 24.328 74.7628 24.328C75.4828 24.328 76.0188 24.512 76.3708 24.88C76.7228 25.232 76.9388 25.696 77.0188 26.272H77.0908C77.3148 25.712 77.6348 25.248 78.0508 24.88C78.4668 24.512 79.0428 24.328 79.7788 24.328C80.7868 24.328 81.4588 24.68 81.7948 25.384C82.1468 26.088 82.3228 27.096 82.3228 28.408V37H80.5468V28.72C80.5468 27.664 80.4348 26.936 80.2108 26.536C80.0028 26.12 79.6108 25.912 79.0348 25.912C78.5228 25.912 78.1068 26.08 77.7868 26.416C77.4668 26.736 77.3068 27.232 77.3068 27.904V37H75.5308V28.72C75.5308 27.664 75.4188 26.936 75.1948 26.536C74.9868 26.12 74.6028 25.912 74.0428 25.912C73.5308 25.912 73.1068 26.08 72.7708 26.416C72.4508 26.736 72.2908 27.232 72.2908 27.904V37H70.5148ZM91.0254 37.288C90.1294 37.288 89.3214 37.136 88.6014 36.832C87.8974 36.528 87.2894 36.096 86.7774 35.536C86.2814 34.96 85.8974 34.28 85.6254 33.496C85.3534 32.696 85.2174 31.808 85.2174 30.832C85.2174 29.84 85.3534 28.944 85.6254 28.144C85.9134 27.344 86.3054 26.664 86.8014 26.104C87.2974 25.528 87.8894 25.088 88.5774 24.784C89.2814 24.48 90.0574 24.328 90.9054 24.328C91.7374 24.328 92.4894 24.48 93.1614 24.784C93.8494 25.088 94.4334 25.512 94.9134 26.056C95.3934 26.584 95.7614 27.216 96.0174 27.952C96.2734 28.688 96.4014 29.496 96.4014 30.376V31.288H87.2334V31.864C87.2334 32.408 87.3214 32.912 87.4974 33.376C87.6734 33.84 87.9214 34.24 88.2414 34.576C88.5774 34.912 88.9774 35.176 89.4414 35.368C89.9214 35.544 90.4494 35.632 91.0254 35.632C91.8574 35.632 92.5774 35.44 93.1854 35.056C93.7934 34.672 94.2574 34.144 94.5774 33.472L95.9934 34.432C95.6254 35.264 95.0094 35.952 94.1454 36.496C93.2974 37.024 92.2574 37.288 91.0254 37.288ZM90.9054 25.912C90.3774 25.912 89.8894 26.008 89.4414 26.2C88.9934 26.392 88.6014 26.656 88.2654 26.992C87.9454 27.328 87.6894 27.728 87.4974 28.192C87.3214 28.64 87.2334 29.136 87.2334 29.68V29.848H94.3374V29.584C94.3374 29.04 94.2494 28.544 94.0734 28.096C93.9134 27.648 93.6814 27.264 93.3774 26.944C93.0894 26.608 92.7294 26.352 92.2974 26.176C91.8814 26 91.4174 25.912 90.9054 25.912ZM99.92 35.368H104.24V20.872H99.92V19.24H106.16V35.368H110.48V37H99.92V35.368ZM119.807 37.288C118.911 37.288 118.103 37.136 117.383 36.832C116.679 36.528 116.071 36.096 115.559 35.536C115.063 34.96 114.679 34.28 114.407 33.496C114.135 32.696 113.999 31.808 113.999 30.832C113.999 29.84 114.135 28.944 114.407 28.144C114.695 27.344 115.087 26.664 115.583 26.104C116.079 25.528 116.671 25.088 117.359 24.784C118.063 24.48 118.839 24.328 119.687 24.328C120.519 24.328 121.271 24.48 121.943 24.784C122.631 25.088 123.215 25.512 123.695 26.056C124.175 26.584 124.543 27.216 124.799 27.952C125.055 28.688 125.183 29.496 125.183 30.376V31.288H116.015V31.864C116.015 32.408 116.103 32.912 116.279 33.376C116.455 33.84 116.703 34.24 117.023 34.576C117.359 34.912 117.759 35.176 118.223 35.368C118.703 35.544 119.231 35.632 119.807 35.632C120.639 35.632 121.359 35.44 121.967 35.056C122.575 34.672 123.039 34.144 123.359 33.472L124.775 34.432C124.407 35.264 123.791 35.952 122.927 36.496C122.079 37.024 121.039 37.288 119.807 37.288ZM119.687 25.912C119.159 25.912 118.671 26.008 118.223 26.2C117.775 26.392 117.383 26.656 117.047 26.992C116.727 27.328 116.471 27.728 116.279 28.192C116.103 28.64 116.015 29.136 116.015 29.68V29.848H123.119V29.584C123.119 29.04 123.031 28.544 122.855 28.096C122.695 27.648 122.463 27.264 122.159 26.944C121.871 26.608 121.511 26.352 121.079 26.176C120.663 26 120.199 25.912 119.687 25.912ZM128.773 35.368H132.949V26.248H128.533V24.616H132.949V22.072C132.949 21.24 133.165 20.56 133.597 20.032C134.045 19.504 134.741 19.24 135.685 19.24H139.837V20.872H134.869V24.616H139.837V26.248H134.869V35.368H139.285V37H128.773V35.368ZM148.972 37C148.028 37 147.332 36.736 146.884 36.208C146.452 35.68 146.236 35 146.236 34.168V26.248H142.108V24.616H145.18C145.596 24.616 145.884 24.536 146.044 24.376C146.22 24.2 146.308 23.904 146.308 23.488V20.248H148.156V24.616H153.796V26.248H148.156V35.368H153.796V37H148.972Z" fill="#A6E3A1"/>
<path d="M361.47 63.456C360.414 63.456 359.55 63.104 358.878 62.4C358.222 61.68 357.894 60.616 357.894 59.208C357.894 57.8 358.222 56.744 358.878 56.04C359.55 55.32 360.414 54.96 361.47 54.96C362.526 54.96 363.382 55.32 364.038 56.04C364.71 56.744 365.046 57.8 365.046 59.208C365.046 60.616 364.71 61.68 364.038 62.4C363.382 63.104 362.526 63.456 361.47 63.456ZM361.47 62.16C362.046 62.16 362.51 61.96 362.862 61.56C363.23 61.16 363.414 60.576 363.414 59.808V58.608C363.414 57.84 363.23 57.256 362.862 56.856C362.51 56.456 362.046 56.256 361.47 56.256C360.894 56.256 360.422 56.456 360.054 56.856C359.702 57.256 359.526 57.84 359.526 58.608V59.808C359.526 60.576 359.702 61.16 360.054 61.56C360.422 61.96 360.894 62.16 361.47 62.16ZM369.654 55.248H371.382L367.542 62.448H365.814L369.654 55.248ZM361.686 64.8H363.414L359.574 72H357.846L361.686 64.8ZM367.758 72.288C366.702 72.288 365.838 71.936 365.166 71.232C364.51 70.512 364.182 69.448 364.182 68.04C364.182 66.632 364.51 65.576 365.166 64.872C365.838 64.152 366.702 63.792 367.758 63.792C368.814 63.792 369.67 64.152 370.326 64.872C370.998 65.576 371.334 66.632 371.334 68.04C371.334 69.448 370.998 70.512 370.326 71.232C369.67 71.936 368.814 72.288 367.758 72.288ZM367.758 70.992C368.334 70.992 368.798 70.792 369.15 70.392C369.518 69.992 369.702 69.408 369.702 68.64V67.44C369.702 66.672 369.518 66.088 369.15 65.688C368.798 65.288 368.334 65.088 367.758 65.088C367.182 65.088 366.71 65.288 366.342 65.688C365.99 66.088 365.814 66.672 365.814 67.44V68.64C365.814 69.408 365.99 69.992 366.342 70.392C366.71 70.792 367.182 70.992 367.758 70.992ZM380.877 72V68.712H372.621V66.936L379.869 55.248H382.797V67.056H385.293V68.712H382.797V72H380.877ZM374.421 67.056H380.877V56.808H380.781L374.421 67.056ZM393.395 72.288C392.419 72.288 391.563 72.168 390.827 71.928C390.091 71.672 389.475 71.328 388.979 70.896C388.499 70.464 388.131 69.952 387.875 69.36C387.635 68.768 387.515 68.128 387.515 67.44C387.515 66.288 387.827 65.376 388.451 64.704C389.075 64.032 389.899 63.56 390.923 63.288V63.096C390.027 62.792 389.315 62.304 388.787 61.632C388.275 60.944 388.019 60.12 388.019 59.16C388.019 57.88 388.491 56.864 389.435 56.112C390.379 55.344 391.699 54.96 393.395 54.96C395.091 54.96 396.411 55.344 397.355 56.112C398.299 56.864 398.771 57.88 398.771 59.16C398.771 60.12 398.507 60.944 397.979 61.632C397.467 62.304 396.763 62.792 395.867 63.096V63.288C396.891 63.56 397.715 64.032 398.339 64.704C398.963 65.376 399.275 66.288 399.275 67.44C399.275 68.128 399.147 68.768 398.891 69.36C398.651 69.952 398.283 70.464 397.787 70.896C397.291 71.328 396.675 71.672 395.939 71.928C395.219 72.168 394.371 72.288 393.395 72.288ZM393.395 70.584C394.579 70.584 395.507 70.32 396.179 69.792C396.851 69.264 397.187 68.52 397.187 67.56V67.032C397.187 66.072 396.851 65.328 396.179 64.8C395.523 64.272 394.595 64.008 393.395 64.008C392.195 64.008 391.259 64.272 390.587 64.8C389.931 65.328 389.603 66.072 389.603 67.032V67.56C389.603 68.52 389.939 69.264 390.611 69.792C391.283 70.32 392.211 70.584 393.395 70.584ZM393.395 62.376C394.483 62.376 395.307 62.144 395.867 61.68C396.443 61.216 396.731 60.552 396.731 59.688V59.352C396.731 58.488 396.435 57.824 395.843 57.36C395.267 56.896 394.451 56.664 393.395 56.664C392.339 56.664 391.515 56.896 390.923 57.36C390.347 57.824 390.059 58.488 390.059 59.352V59.688C390.059 60.552 390.339 61.216 390.899 61.68C391.475 62.144 392.307 62.376 393.395 62.376Z" fill="#A6E3A1"/>
<path d="M20.0247 23.04L32.9847 29.52L20.0247 36V23.04Z" fill="#B4BEFE"/>
<rect x="19" y="49" width="319" height="29" rx="4" fill="#45475A"/>
<path d="M19 53C19 50.7909 20.7909 49 23 49H172.12V78H23C20.7909 78 19 76.2091 19 74V53Z" fill="#F5C2E7"/>
</svg>
